# xmcd CD database file
#
# Track frame offsets:
#	225
#	49565
#	85253
#	133068
#
# Disc length: 2301 seconds
#
# Revision: 1
# Processed by: cddbd v1.5.1PL2 Copyright (c) Steve Scherf et al.
# Submitted via: CDex 1.51
#
DISCID=2d08fa04
DTITLE=Amancio D'Silva - Konkan Dance
DYEAR=1974
DGENRE=Jazz
TTITLE0=A Street in Bombay
TTITLE1=What Maria Sees
TTITLE2=A Song for Francesca
TTITLE3=Konkan Dance
EXTD=YEAR: 1974
EXTT0=
EXTT1=
EXTT2=
EXTT3=
PLAYORDER=
